<svg width="24" height="24" viewBox="0 0 24 24" fill="none" xmlns="http://www.w3.org/2000/svg">
<path d="M12.0009 2.25C14.0224 2.25017 15.7449 3.51308 16.4316 5.29102C17.4277 5.18048 18.4403 5.38747 19.3203 5.89258C20.4129 6.51979 21.2119 7.55538 21.541 8.77148C21.8701 9.98762 21.7024 11.2853 21.0752 12.3779C20.5458 13.2998 19.7249 14.0104 18.7509 14.4082V21C18.7509 21.4141 18.415 21.7498 18.0009 21.75H6.00095C5.58673 21.75 5.25095 21.4142 5.25095 21V14.4092C4.85612 14.2479 4.48356 14.0351 4.1445 13.7734C3.65067 13.3924 3.23619 12.918 2.92575 12.377C2.61536 11.8359 2.41471 11.2387 2.33493 10.6201C2.2552 10.0014 2.29783 9.37263 2.46091 8.77051C2.62399 8.16845 2.9041 7.60419 3.28513 7.11035C3.66626 6.61644 4.14145 6.20206 4.68259 5.8916C5.22367 5.58121 5.82075 5.38051 6.43942 5.30078C6.81551 5.25232 7.19513 5.2494 7.57028 5.29102C7.86902 4.51645 8.36668 3.82924 9.0195 3.30273C9.86363 2.62212 10.9156 2.25032 12 2.25H12.0009ZM6.75095 17.7578V20.25H17.2509V17.75L6.75095 17.7578ZM11.7236 3.76172C11.0811 3.81683 10.4672 4.06241 9.96188 4.46973C9.38425 4.93547 8.98266 5.58544 8.82517 6.31055C8.78148 6.51114 8.6578 6.68531 8.48239 6.79199C8.3068 6.89873 8.0948 6.92872 7.89645 6.875C7.48442 6.76339 7.05421 6.73352 6.63083 6.78809C6.2075 6.84266 5.79891 6.98095 5.42868 7.19336C5.05856 7.40577 4.73334 7.68852 4.47263 8.02637C4.21196 8.36417 4.02078 8.75029 3.90915 9.16211C3.79756 9.57405 3.76772 10.0044 3.82224 10.4277C3.87678 10.851 4.01422 11.2597 4.22653 11.6299C4.43894 12.0001 4.7226 12.3252 5.06052 12.5859C5.3984 12.8467 5.78432 13.0388 6.19626 13.1504C6.52317 13.2389 6.75095 13.5353 6.75095 13.874V16.2578L17.2509 16.25V13.874C17.2509 13.5353 17.4777 13.2389 17.8047 13.1504C18.6367 12.9252 19.3452 12.3784 19.7744 11.6309C20.2036 10.8832 20.3179 9.99521 20.0927 9.16309C19.8675 8.33123 19.3216 7.62248 18.5742 7.19336C17.8266 6.76419 16.9385 6.64981 16.1064 6.875C15.908 6.92868 15.6961 6.89883 15.5205 6.79199C15.3449 6.68514 15.2212 6.51046 15.1777 6.30957C14.8608 4.84625 13.558 3.7502 12.0009 3.75L11.7236 3.76172Z" fill="#4F5052"/>
</svg>
