<svg width="32" height="32" viewBox="0 0 32 32" fill="none" xmlns="http://www.w3.org/2000/svg">
<path d="M25.6668 10.6663C25.6668 9.51707 25.21 8.4152 24.3973 7.60254C23.5846 6.78988 22.4828 6.33301 21.3335 6.33301H10.6668C9.51756 6.33301 8.41568 6.78988 7.60303 7.60254C6.79037 8.4152 6.3335 9.51707 6.3335 10.6663V21.333C6.3335 22.4823 6.79037 23.5842 7.60303 24.3968C8.41568 25.2095 9.51756 25.6663 10.6668 25.6663H21.3335C22.4828 25.6663 23.5846 25.2095 24.3973 24.3968C25.21 23.5842 25.6668 22.4823 25.6668 21.333V10.6663ZM19.0002 15.9997C19.0002 15.204 18.6839 14.4412 18.1213 13.8786C17.5586 13.316 16.7958 12.9997 16.0002 12.9997C15.2045 12.9997 14.4417 13.316 13.8791 13.8786C13.3165 14.4412 13.0002 15.204 13.0002 15.9997C13.0002 16.7953 13.3165 17.5582 13.8791 18.1208C14.4417 18.6834 15.2045 18.9997 16.0002 18.9997C16.7958 18.9997 17.5586 18.6834 18.1213 18.1208C18.6839 17.5582 19.0002 16.7953 19.0002 15.9997ZM21.0002 10.0127V9.99967C21.0002 9.44739 21.4479 8.99967 22.0002 8.99967C22.5524 8.99967 23.0002 9.44739 23.0002 9.99967V10.0127C23.0002 10.565 22.5524 11.0127 22.0002 11.0127C21.4479 11.0127 21.0002 10.565 21.0002 10.0127ZM21.0002 15.9997C21.0002 17.3258 20.473 18.5971 19.5353 19.5348C18.5976 20.4725 17.3262 20.9997 16.0002 20.9997C14.6741 20.9997 13.4027 20.4725 12.465 19.5348C11.5273 18.5971 11.0002 17.3258 11.0002 15.9997C11.0002 14.6736 11.5273 13.4022 12.465 12.4645C13.4027 11.5268 14.6741 10.9997 16.0002 10.9997C17.3262 10.9997 18.5976 11.5268 19.5353 12.4645C20.473 13.4022 21.0002 14.6736 21.0002 15.9997ZM27.6668 21.333C27.6668 23.0127 26.9991 24.6231 25.8114 25.8109C24.6236 26.9986 23.0132 27.6663 21.3335 27.6663H10.6668C8.98712 27.6663 7.37669 26.9986 6.18896 25.8109C5.00123 24.6231 4.3335 23.0127 4.3335 21.333V10.6663C4.3335 8.98664 5.00123 7.37621 6.18896 6.18848C7.3767 5.00075 8.98712 4.33301 10.6668 4.33301H21.3335C23.0132 4.33301 24.6236 5.00075 25.8114 6.18848C26.9991 7.37621 27.6668 8.98664 27.6668 10.6663V21.333Z" fill="white"/>
</svg>
