<svg width="24" height="24" viewBox="0 0 24 24" fill="none" xmlns="http://www.w3.org/2000/svg">
<path d="M14.25 6C14.25 5.66848 14.1182 5.35063 13.8838 5.11621C13.6788 4.9112 13.41 4.78436 13.124 4.75586L13 4.75C12.6685 4.75 12.3506 4.88179 12.1162 5.11621C11.8818 5.35063 11.75 5.66848 11.75 6V7C11.75 8.25978 11.2492 9.4676 10.3584 10.3584C9.64639 11.0704 8.73182 11.5324 7.75 11.6895V17C7.75 17.5967 7.98722 18.1689 8.40918 18.5908C8.83114 19.0128 9.40326 19.25 10 19.25H17C17.0212 19.25 17.0424 19.2511 17.0635 19.2529C17.2368 19.2677 17.4578 19.2053 17.6924 18.9707C17.9334 18.7297 18.1501 18.3384 18.2695 17.8291L19.2471 12.9395C19.2321 12.63 19.1039 12.3363 18.8838 12.1162C18.6494 11.8818 18.3315 11.75 18 11.75H15C14.5858 11.75 14.25 11.4142 14.25 11V6ZM3.75 19L3.75488 19.0488C3.76447 19.0969 3.78804 19.1416 3.82324 19.1768C3.87013 19.2236 3.93369 19.25 4 19.25H6C6.06631 19.25 6.12987 19.2236 6.17676 19.1768C6.22364 19.1299 6.25 19.0663 6.25 19V11.75H4C3.9337 11.75 3.87013 11.7764 3.82324 11.8232C3.77636 11.8701 3.75 11.9337 3.75 12V19ZM15.75 10.25H18C18.7293 10.25 19.4286 10.5399 19.9443 11.0557C20.4601 11.5714 20.75 12.2707 20.75 13C20.75 13.0494 20.745 13.099 20.7354 13.1475L19.7354 18.1475C19.7338 18.1553 19.7323 18.1631 19.7305 18.1709C19.5623 18.8884 19.2333 19.5509 18.7529 20.0312C18.2792 20.505 17.663 20.7893 16.9922 20.75H10C9.09283 20.75 8.22019 20.4206 7.54004 19.8291C7.46 19.9778 7.35888 20.1157 7.2373 20.2373C6.90912 20.5655 6.46413 20.75 6 20.75H4C3.53587 20.75 3.09088 20.5655 2.7627 20.2373C2.43451 19.9091 2.25 19.4641 2.25 19V12C2.25 11.5359 2.43451 11.0909 2.7627 10.7627C3.09088 10.4345 3.53587 10.25 4 10.25H7L7.16113 10.2461C7.96442 10.2062 8.72644 9.86926 9.29785 9.29785C9.86926 8.72644 10.2062 7.96442 10.2461 7.16113L10.25 7V6C10.25 5.27065 10.5399 4.57139 11.0557 4.05566C11.5714 3.53994 12.2707 3.25 13 3.25L13.2715 3.26367C13.9011 3.32612 14.493 3.60433 14.9443 4.05566C15.4601 4.57139 15.75 5.27065 15.75 6V10.25Z" fill="#4F5052"/>
</svg>
