<svg width="24" height="24" viewBox="0 0 24 24" fill="none" xmlns="http://www.w3.org/2000/svg">
<path d="M20.25 7C20.25 6.40326 20.0128 5.83114 19.5908 5.40918C19.1689 4.98722 18.5967 4.75 18 4.75H6C5.40326 4.75 4.83114 4.98722 4.40918 5.40918C3.98722 5.83114 3.75 6.40326 3.75 7V15C3.75 15.5967 3.98722 16.1689 4.40918 16.5908C4.83114 17.0128 5.40326 17.25 6 17.25H8C8.41421 17.25 8.75 17.5858 8.75 18V19.6748L12.6143 17.3564L12.7041 17.3105C12.7972 17.2706 12.898 17.25 13 17.25H18L18.2227 17.2393C18.7376 17.1881 19.2217 16.96 19.5908 16.5908C19.96 16.2217 20.1881 15.7376 20.2393 15.2227L20.25 15V7ZM14 12.25C14.4142 12.25 14.75 12.5858 14.75 13C14.75 13.4142 14.4142 13.75 14 13.75H8C7.58579 13.75 7.25 13.4142 7.25 13C7.25 12.5858 7.58579 12.25 8 12.25H14ZM16 8.25C16.4142 8.25 16.75 8.58579 16.75 9C16.75 9.41421 16.4142 9.75 16 9.75H8C7.58579 9.75 7.25 9.41421 7.25 9C7.25 8.58579 7.58579 8.25 8 8.25H16ZM21.75 15C21.75 15.9946 21.3546 16.9481 20.6514 17.6514C19.9481 18.3546 18.9946 18.75 18 18.75H13.208L8.38574 21.6436C8.15414 21.7824 7.86586 21.7853 7.63086 21.6523C7.39573 21.5192 7.25 21.2702 7.25 21V18.75H6C5.00544 18.75 4.05189 18.3546 3.34863 17.6514C2.64537 16.9481 2.25 15.9946 2.25 15V7C2.25 6.00544 2.64537 5.05189 3.34863 4.34863C4.05189 3.64537 5.00544 3.25 6 3.25H18C18.9946 3.25 19.9481 3.64537 20.6514 4.34863C21.3546 5.05189 21.75 6.00544 21.75 7V15Z" fill="#4F5052"/>
</svg>
