<svg width="32" height="32" viewBox="0 0 32 32" fill="none" xmlns="http://www.w3.org/2000/svg">
<path d="M6.99984 9H3.6665V14.6667L3.67822 15.1458C3.79671 17.5351 4.79764 19.803 6.49723 21.5026C8.31008 23.3155 10.7694 24.3333 13.3332 24.3333H17.7069V19.3438C17.7069 19.057 17.8292 18.7835 18.0441 18.5938C18.2591 18.4039 18.546 18.3161 18.8306 18.3516C20.5337 18.5641 22.1007 19.3918 23.2368 20.6784C24.1502 21.7128 24.7342 22.9869 24.9282 24.3385H28.1353L27.7707 22.332C27.5744 21.2525 27.0912 20.2455 26.3722 19.4167C25.6532 18.5879 24.7244 17.9679 23.6834 17.6211C23.2999 17.4932 23.0313 17.1467 23.0024 16.7435C22.9737 16.34 23.1914 15.9582 23.5532 15.7773C24.6623 15.2228 25.63 14.4216 26.3827 13.4362C27.1352 12.4508 27.6537 11.307 27.897 10.0911L28.1144 9.00521H24.9282C24.7343 10.3569 24.1501 11.6309 23.2368 12.6654C22.1008 13.9519 20.5337 14.7796 18.8306 14.9922C18.7896 14.9973 18.7481 15 18.7069 15H18.6665C18.1142 15 17.6665 14.5523 17.6665 14V9H14.3332V20C14.3332 20.2652 14.2277 20.5195 14.0402 20.707C13.8527 20.8946 13.5984 21 13.3332 21C11.6535 21 10.043 20.3323 8.85531 19.1445C7.66758 17.9568 6.99984 16.3464 6.99984 14.6667V9ZM9.00505 14.8815C9.05817 15.9526 9.50749 16.9686 10.2694 17.7305C10.8419 18.303 11.5581 18.6976 12.3332 18.8815V8C12.3332 7.44772 12.7809 7 13.3332 7H18.6665C19.2188 7 19.6665 7.44772 19.6665 8V12.7474C20.4582 12.4622 21.1719 11.982 21.7368 11.3424C22.5502 10.4213 22.9998 9.23413 22.9998 8.00521C22.9999 7.45298 23.4476 7.00521 23.9998 7.00521H29.3332C29.6327 7.00521 29.9167 7.13947 30.1066 7.37109C30.2965 7.60276 30.3724 7.90806 30.3136 8.20182L29.8579 10.4831C29.5549 11.9978 28.9101 13.4235 27.9725 14.651C27.4231 15.3703 26.7785 16.0063 26.0636 16.5521C26.7402 16.9766 27.3547 17.4981 27.8827 18.1068C28.8365 19.2064 29.4776 20.5418 29.7381 21.974L30.3175 25.1602C30.3704 25.4516 30.2911 25.7517 30.1014 25.9792C29.9114 26.2068 29.6297 26.3385 29.3332 26.3385H23.9998C23.4476 26.3385 22.9999 25.8908 22.9998 25.3385C22.9998 24.1097 22.5502 22.9238 21.7368 22.0026C21.1813 21.3735 20.4829 20.8963 19.7069 20.6094V25.3438C19.7069 25.6542 19.5623 25.9474 19.3162 26.1367C19.1007 26.3023 18.8281 26.3721 18.5623 26.3333H13.3332C10.239 26.3333 7.2711 25.1046 5.08317 22.9167C2.89525 20.7287 1.6665 17.7609 1.6665 14.6667V8C1.6665 7.44772 2.11422 7 2.6665 7H7.99984C8.55212 7 8.99984 7.44772 8.99984 8V14.6667L9.00505 14.8815Z" fill="white"/>
</svg>
