<svg width="134" height="29" viewBox="0 0 134 29" fill="none" xmlns="http://www.w3.org/2000/svg">
<path d="M21.4581 24.6397C20.2988 24.6397 19.1395 24.6397 17.8438 24.6397C15.2525 14.0875 14.2978 6.07054 14.1614 6.07054C14.025 6.07054 10.2061 24.0915 9.93336 24.6397C9.5924 24.6397 6.86465 24.6397 6.25091 24.6397C4.47787 17.1024 2.77303 9.5651 1 1.95929C2.22749 1.95929 3.38678 1.95929 4.68246 1.95929C5.90994 8.33172 7.13743 14.7042 8.36491 21.0766C8.4331 20.5284 11.8428 4.90568 12.4565 1.95929C12.5929 1.95929 13.0021 1.95929 14.2978 1.95929C14.4341 1.95929 15.2525 1.95929 16.0026 1.95929C17.2983 8.33172 18.5258 14.7042 19.8214 21.1451C21.1171 14.7727 22.4128 8.40025 23.7085 2.02781C24.936 2.02781 26.0271 2.02781 27.2545 2.02781C25.2769 9.5651 23.3675 17.1024 21.4581 24.6397Z" fill="#121212"/>
<path d="M67.7612 4.76865C67.7612 7.02984 67.7612 9.22251 67.7612 11.4152C70.3526 11.4152 72.944 11.4152 75.5353 11.4152C75.5353 12.3745 75.5353 13.2652 75.5353 14.2245C72.944 14.2245 70.3526 14.2245 67.7612 14.2245C67.7612 16.7598 67.7612 19.158 67.7612 21.6933C70.6254 21.6933 73.5577 21.6933 76.49 21.6933C76.49 22.6526 76.49 23.5434 76.49 24.5026C72.4666 24.5026 68.4432 24.5026 64.3516 24.5026C64.3516 16.9654 64.3516 9.49659 64.3516 1.89078C68.2386 1.89078 72.1256 1.89078 76.0127 1.89078C76.0127 2.78155 76.0127 3.67232 76.0127 4.70013C73.3531 4.76865 70.6254 4.76865 67.7612 4.76865Z" fill="#121212"/>
<path d="M122.59 24.5712C121.43 24.5712 120.339 24.5712 119.18 24.5712C119.18 24.2286 119.18 23.9545 119.18 23.6804C119.18 20.9396 119.18 18.1302 119.18 15.3894C119.18 14.7042 119.112 13.9505 118.975 13.2652C118.43 10.9355 115.838 10.1133 113.997 11.6207C112.974 12.443 112.633 13.5393 112.633 14.8412C112.633 17.7876 112.633 20.734 112.633 23.6804C112.633 23.9545 112.633 24.2286 112.633 24.5712C111.474 24.5712 110.451 24.5712 109.224 24.5712C109.224 19.2266 109.224 13.8134 109.224 8.40027C110.11 8.40027 111.065 8.40027 112.02 8.40027C112.02 9.22252 112.088 10.0448 112.088 10.7985C112.429 10.3189 112.974 9.56513 113.929 9.01696C114.338 8.74288 116.316 7.44098 118.634 8.19471C120.476 8.74288 121.908 10.3189 122.385 12.58C122.453 12.9912 122.521 13.4708 122.521 13.8819C122.521 14.156 122.521 14.4301 122.521 14.7042C122.59 17.9932 122.59 21.2137 122.59 24.5712Z" fill="#121212"/>
<path d="M41.8483 17.2396C38.4386 17.2396 34.9608 17.2396 31.5511 17.2396C31.5511 18.9526 32.0966 20.323 33.0513 21.2138C34.1424 22.1731 35.3699 22.2416 36.3246 22.3101C38.1659 22.4471 39.6661 21.899 40.4162 21.5564C40.6208 22.3786 40.8936 23.2009 41.0982 24.0231C40.0753 24.5028 38.3704 25.0509 36.3246 24.9824C35.4381 24.9824 33.5287 24.9139 31.6875 23.9546C30.3236 23.2009 29.3689 22.036 28.8233 20.5971C27.7322 17.6507 27.8004 14.7043 29.2325 11.8264C30.7328 8.81149 33.9379 7.44107 37.143 8.26332C37.9613 8.46889 38.575 8.88001 38.6432 8.88001C39.3252 9.29114 39.9389 9.90782 40.2117 10.2504C41.3028 11.5523 41.6437 13.6079 41.7119 14.0876C41.8483 14.4987 41.8483 15.8691 41.8483 17.2396ZM31.5511 14.7043C33.9379 14.7043 36.2564 14.7043 38.575 14.7043C38.6432 12.2375 37.4157 10.593 35.4381 10.456C33.3241 10.3875 31.7557 12.1005 31.5511 14.7043Z" fill="#121212"/>
<path d="M106.632 17.2396C103.222 17.2396 99.744 17.2396 96.3343 17.2396C96.3343 18.9526 96.8798 20.323 97.8345 21.2138C98.9256 22.1731 100.153 22.2416 101.108 22.3101C102.949 22.4471 104.449 21.899 105.199 21.5564C105.404 22.3786 105.677 23.2009 105.881 24.0231C104.858 24.5028 103.154 25.0509 101.108 24.9824C100.221 24.9824 98.3119 24.9139 96.4707 23.9546C95.1068 23.2009 94.1521 22.036 93.6065 20.5971C92.5154 17.6507 92.5836 14.7043 94.0157 11.8264C95.516 8.81149 98.7211 7.44107 101.926 8.26332C102.744 8.46889 103.358 8.88001 103.426 8.88001C104.108 9.29114 104.722 9.90782 104.995 10.2504C106.086 11.5523 106.427 13.6079 106.495 14.0876C106.563 14.5672 106.7 15.8691 106.632 17.2396ZM96.4025 14.7728C98.7892 14.7728 101.108 14.7728 103.426 14.7728C103.495 12.3061 102.267 10.6616 100.29 10.5245C98.1755 10.3875 96.5389 12.1005 96.4025 14.7728Z" fill="#121212"/>
<path d="M77.4453 8.40039C78.741 8.40039 79.9003 8.40039 81.1278 8.40039C82.3553 12.5802 83.6509 16.7599 84.8784 20.9397C86.1059 16.8285 87.3334 12.6487 88.5609 8.40039C89.7202 8.40039 90.8795 8.40039 92.1751 8.40039C90.2657 13.8135 88.2881 19.2267 86.3787 24.6398C85.424 24.6398 84.4693 24.6398 83.5145 24.6398C83.31 24.6398 83.0372 24.4343 82.969 24.2972C81.1278 19.0211 79.2865 13.745 77.4453 8.40039Z" fill="#121212"/>
<path d="M126.817 11.0728C125.998 11.0728 125.317 11.0728 124.566 11.0728C124.566 10.182 124.566 9.35977 124.566 8.469C125.317 8.469 125.998 8.469 126.749 8.469C126.749 7.44119 126.749 6.48189 126.749 5.5226C127.908 5.18 128.999 4.83739 130.158 4.42627C130.158 5.79669 130.158 7.03006 130.158 8.40048C131.454 8.40048 132.681 8.40048 133.977 8.40048C133.977 9.29125 133.977 10.1135 133.977 11.0043C132.681 11.0043 131.454 11.0043 130.158 11.0043C130.158 12.7858 130.158 14.4303 130.158 16.0748C130.158 17.2397 130.158 18.4045 130.158 19.5008C130.158 21.0083 130.567 21.488 130.908 21.762C131.59 22.2417 132.545 22.2417 132.886 22.2417C133.227 22.2417 133.5 22.1732 133.704 22.1046C133.704 22.4472 133.704 22.8584 133.704 23.201C133.704 23.6806 133.704 24.1603 133.704 24.6399C132.75 24.914 131.181 25.2566 129.545 24.7084C129.067 24.5714 128.522 24.3658 127.976 23.8862C127.226 23.201 126.885 22.2417 126.817 21.0768C126.68 19.1582 126.749 17.1711 126.749 15.2526C126.749 13.9904 126.817 12.7173 126.817 11.0728Z" fill="#121212"/>
<path d="M44.4395 1C45.5306 1 46.6216 1 47.7127 1C47.7127 8.87989 47.7127 16.6913 47.7127 24.5712C46.6216 24.5712 45.5306 24.5712 44.4395 24.5712C44.4395 16.7598 44.4395 8.87989 44.4395 1Z" fill="#121212"/>
<path d="M54.8044 1C54.8044 8.87989 54.8044 16.6913 54.8044 24.5712C53.7133 24.5712 52.6222 24.5712 51.4629 24.5712C51.4629 16.6913 51.4629 8.87989 51.4629 1C52.554 1 53.6451 1 54.8044 1Z" fill="#121212"/>
</svg>
