<svg width="133" height="24" viewBox="0 0 133 24" fill="none" xmlns="http://www.w3.org/2000/svg">
<path d="M20.4581 23.6397C19.2988 23.6397 18.1395 23.6397 16.8438 23.6397C14.2525 13.0875 13.2978 5.07054 13.1614 5.07054C13.025 5.07054 9.20614 23.0915 8.93336 23.6397C8.5924 23.6397 5.86465 23.6397 5.25091 23.6397C3.47787 16.1024 1.77303 8.5651 0 0.95929C1.22749 0.95929 2.38678 0.95929 3.68246 0.95929C4.90994 7.33172 6.13743 13.7042 7.36491 20.0766C7.4331 19.5284 10.8428 3.90568 11.4565 0.95929C11.5929 0.95929 12.0021 0.95929 13.2978 0.95929C13.4341 0.95929 14.2525 0.95929 15.0026 0.95929C16.2983 7.33172 17.5258 13.7042 18.8214 20.1451C20.1171 13.7727 21.4128 7.40025 22.7085 1.02781C23.936 1.02781 25.0271 1.02781 26.2545 1.02781C24.2769 8.5651 22.3675 16.1024 20.4581 23.6397Z" fill="white"/>
<path d="M66.7615 3.76865C66.7615 6.02984 66.7615 8.22251 66.7615 10.4152C69.3528 10.4152 71.9442 10.4152 74.5356 10.4152C74.5356 11.3745 74.5356 12.2652 74.5356 13.2245C71.9442 13.2245 69.3528 13.2245 66.7615 13.2245C66.7615 15.7598 66.7615 18.158 66.7615 20.6933C69.6256 20.6933 72.5579 20.6933 75.4903 20.6933C75.4903 21.6526 75.4903 22.5434 75.4903 23.5026C71.4668 23.5026 67.4434 23.5026 63.3518 23.5026C63.3518 15.9654 63.3518 8.49659 63.3518 0.890778C67.2388 0.890778 71.1259 0.890778 75.0129 0.890778C75.0129 1.78155 75.0129 2.67232 75.0129 3.70013C72.3534 3.76865 69.6256 3.76865 66.7615 3.76865Z" fill="white"/>
<path d="M121.59 23.5712C120.43 23.5712 119.339 23.5712 118.18 23.5712C118.18 23.2286 118.18 22.9545 118.18 22.6804C118.18 19.9396 118.18 17.1302 118.18 14.3894C118.18 13.7042 118.112 12.9505 117.975 12.2652C117.43 9.93554 114.838 9.11329 112.997 10.6207C111.974 11.443 111.633 12.5393 111.633 13.8412C111.633 16.7876 111.633 19.734 111.633 22.6804C111.633 22.9545 111.633 23.2286 111.633 23.5712C110.474 23.5712 109.451 23.5712 108.224 23.5712C108.224 18.2266 108.224 12.8134 108.224 7.40027C109.11 7.40027 110.065 7.40027 111.02 7.40027C111.02 8.22252 111.088 9.04477 111.088 9.7985C111.429 9.31885 111.974 8.56513 112.929 8.01696C113.338 7.74288 115.316 6.44098 117.634 7.19471C119.476 7.74288 120.908 9.31885 121.385 11.58C121.453 11.9912 121.521 12.4708 121.521 12.8819C121.521 13.156 121.521 13.4301 121.521 13.7042C121.59 16.9932 121.59 20.2137 121.59 23.5712Z" fill="white"/>
<path d="M40.8483 16.2396C37.4386 16.2396 33.9608 16.2396 30.5511 16.2396C30.5511 17.9526 31.0966 19.323 32.0513 20.2138C33.1424 21.1731 34.3699 21.2416 35.3246 21.3101C37.1659 21.4471 38.6661 20.899 39.4162 20.5564C39.6208 21.3786 39.8936 22.2009 40.0982 23.0231C39.0753 23.5028 37.3704 24.0509 35.3246 23.9824C34.4381 23.9824 32.5287 23.9139 30.6875 22.9546C29.3236 22.2009 28.3689 21.036 27.8233 19.5971C26.7322 16.6507 26.8004 13.7043 28.2325 10.8264C29.7328 7.81149 32.9379 6.44107 36.143 7.26332C36.9613 7.46889 37.575 7.88001 37.6432 7.88001C38.3252 8.29114 38.9389 8.90782 39.2117 9.25043C40.3028 10.5523 40.6437 12.6079 40.7119 13.0876C40.8483 13.4987 40.8483 14.8691 40.8483 16.2396ZM30.5511 13.7043C32.9379 13.7043 35.2564 13.7043 37.575 13.7043C37.6432 11.2375 36.4157 9.59303 34.4381 9.45599C32.3241 9.38747 30.7557 11.1005 30.5511 13.7043Z" fill="white"/>
<path d="M105.632 16.2396C102.222 16.2396 98.744 16.2396 95.3343 16.2396C95.3343 17.9526 95.8798 19.323 96.8345 20.2138C97.9256 21.1731 99.1531 21.2416 100.108 21.3101C101.949 21.4471 103.449 20.899 104.199 20.5564C104.404 21.3786 104.677 22.2009 104.881 23.0231C103.858 23.5028 102.154 24.0509 100.108 23.9824C99.2213 23.9824 97.3119 23.9139 95.4707 22.9546C94.1068 22.2009 93.1521 21.036 92.6065 19.5971C91.5154 16.6507 91.5836 13.7043 93.0157 10.8264C94.516 7.81149 97.7211 6.44107 100.926 7.26332C101.744 7.46889 102.358 7.88001 102.426 7.88001C103.108 8.29114 103.722 8.90782 103.995 9.25043C105.086 10.5523 105.427 12.6079 105.495 13.0876C105.563 13.5672 105.7 14.8691 105.632 16.2396ZM95.4025 13.7728C97.7892 13.7728 100.108 13.7728 102.426 13.7728C102.495 11.3061 101.267 9.66155 99.2895 9.52451C97.1755 9.38747 95.5389 11.1005 95.4025 13.7728Z" fill="white"/>
<path d="M76.4453 7.40039C77.741 7.40039 78.9003 7.40039 80.1278 7.40039C81.3553 11.5802 82.6509 15.7599 83.8784 19.9397C85.1059 15.8285 86.3334 11.6487 87.5609 7.40039C88.7202 7.40039 89.8795 7.40039 91.1751 7.40039C89.2657 12.8135 87.2881 18.2267 85.3787 23.6398C84.424 23.6398 83.4693 23.6398 82.5145 23.6398C82.31 23.6398 82.0372 23.4343 81.969 23.2972C80.1278 18.0211 78.2865 12.745 76.4453 7.40039Z" fill="white"/>
<path d="M125.817 10.0728C124.998 10.0728 124.317 10.0728 123.566 10.0728C123.566 9.18202 123.566 8.35977 123.566 7.469C124.317 7.469 124.998 7.469 125.749 7.469C125.749 6.44119 125.749 5.48189 125.749 4.5226C126.908 4.18 127.999 3.83739 129.158 3.42627C129.158 4.79669 129.158 6.03006 129.158 7.40048C130.454 7.40048 131.681 7.40048 132.977 7.40048C132.977 8.29125 132.977 9.1135 132.977 10.0043C131.681 10.0043 130.454 10.0043 129.158 10.0043C129.158 11.7858 129.158 13.4303 129.158 15.0748C129.158 16.2397 129.158 17.4045 129.158 18.5008C129.158 20.0083 129.567 20.488 129.908 20.762C130.59 21.2417 131.545 21.2417 131.886 21.2417C132.227 21.2417 132.5 21.1732 132.704 21.1046C132.704 21.4472 132.704 21.8584 132.704 22.201C132.704 22.6806 132.704 23.1603 132.704 23.6399C131.75 23.914 130.181 24.2566 128.545 23.7084C128.067 23.5714 127.522 23.3658 126.976 22.8862C126.226 22.201 125.885 21.2417 125.817 20.0768C125.68 18.1582 125.749 16.1711 125.749 14.2526C125.749 12.9904 125.817 11.7173 125.817 10.0728Z" fill="white"/>
<path d="M43.4395 0C44.5306 0 45.6216 0 46.7127 0C46.7127 7.87989 46.7127 15.6913 46.7127 23.5712C45.6216 23.5712 44.5306 23.5712 43.4395 23.5712C43.4395 15.7598 43.4395 7.87989 43.4395 0Z" fill="white"/>
<path d="M53.8044 0C53.8044 7.87989 53.8044 15.6913 53.8044 23.5712C52.7133 23.5712 51.6222 23.5712 50.4629 23.5712C50.4629 15.6913 50.4629 7.87989 50.4629 0C51.554 0 52.6451 0 53.8044 0Z" fill="white"/>
</svg>
